<?xml version="1.0" encoding="UTF-8"?>
<svg viewBox="0 0 41 46" xmlns="http://www.w3.org/2000/svg">
<path d="m20.759 0.297c-8.9071 0-16.128 7.2207-16.128 16.128 0 8.9072 7.2207 16.128 16.128 16.128 8.9072 0 16.128-7.2206 16.128-16.128 0-8.9071-7.2206-16.128-16.128-16.128zm0.9461 26.902c-6.6234 0.448-11.716-11.809-9.3262-14.19 2.1798-2.172 3.0451-1.3956 3.4544 0.4231 0.2287 1.0156 0.059 2.2617-0.0939 3.3847-0.1329 0.9759-0.2532 1.8588-0.0883 2.4166 0.3546 1.1997 0.9631 2.1505 1.6637 2.083 0.7007-0.0675 1.787-1.9522-0.5509-9.1591-1.7226-5.3103 2.9006-7.146 3.3241-6.0407 0.1912 0.49894-0.071 1.3159-0.379 2.2756-0.3742 1.1662-0.8161 2.5433-0.5944 3.8167 0.1814 1.0422 0.3545 1.6211 0.5091 2.1381 0.1898 0.6345 0.3517 1.1757 0.4668 2.366 0.0488 0.5039 0.0253 1.1489 4e-4 1.8344-0.0629 1.7314-0.1353 3.722 0.9223 4.3554 1.4763 0.8842 2.1238-3.4153 0.7023-11.184-1.2765-6.9756 3.3048-4.8246 3.4256-2.7099 0.1209 2.1146-0.0131 5.2914-0.8677 9.7335-0.8545 4.4422-0.233 4.808 0.8677 3.6908 1.1008-1.1172 1.1623-1.9069 0.5246-6.3109-0.4347-3.0016 4.2637-4.5305 3.7571-0.5864-0.51 3.97-2.8183 11.331-7.7177 11.663z" clip-rule="evenodd" fill="#F9F9F9" fill-rule="evenodd"/>
<path d="m2.9976 45.701c-0.63596 0-1.1429-0.119-1.5209-0.3572-0.37797-0.2321-0.56696-0.5497-0.56696-0.9527 0-0.4397 0.24298-0.8 0.72895-1.081-0.26398-0.1649-0.39597-0.3817-0.39597-0.6504 0-0.1404 0.03899-0.2656 0.11699-0.3756 0.08399-0.1099 0.19498-0.1984 0.33297-0.2656-0.22798-0.1649-0.40197-0.3756-0.52196-0.6321-0.11399-0.2565-0.17099-0.5374-0.17099-0.8428 0-0.3358 0.071997-0.6412 0.21599-0.916 0.14399-0.2809 0.35397-0.5008 0.62995-0.6596 0.27598-0.1649 0.60296-0.2473 0.98093-0.2473 0.39597 0 0.73795 0.0977 1.0259 0.2931 0.102-0.0549 0.23699-0.1007 0.40497-0.1374 0.17399-0.0427 0.35998-0.0641 0.55796-0.0641h0.21599l-0.04493 0.4459c-0.01537 0.1525-0.14374 0.2686-0.29701 0.2686h-0.06303c-0.10199 0-0.18599 0.0031-0.25198 0.0092 0.17998 0.2809 0.26998 0.6168 0.26998 1.0076 0 0.3359-0.072 0.6443-0.21599 0.9253-0.13799 0.2748-0.34497 0.4946-0.62095 0.6595-0.27598 0.1588-0.60296 0.2382-0.98093 0.2382-0.13799 0-0.29698-0.0214-0.47697-0.0641-0.06599 0.0305-0.09899 0.0794-0.09899 0.1465 0 0.0794 0.045 0.1436 0.13499 0.1924 0.09599 0.0428 0.25498 0.0794 0.47697 0.1099l0.77394 0.1008c1.0319 0.1405 1.5479 0.5832 1.5479 1.3283 0 0.4641-0.19499 0.8336-0.58496 1.1084-0.38397 0.2748-0.91793 0.4122-1.6019 0.4122zm-0.17099-4.1772c0.25798 0 0.45597-0.0855 0.59396-0.2565 0.14399-0.1771 0.21598-0.4183 0.21598-0.7237 0-0.3053-0.07199-0.5435-0.21598-0.7145-0.13799-0.1771-0.33598-0.2656-0.59396-0.2656-0.26398 0-0.46797 0.0885-0.61196 0.2656-0.13799 0.171-0.20698 0.4092-0.20698 0.7145 0 0.3054 0.06899 0.5466 0.20698 0.7237 0.14399 0.171 0.34798 0.2565 0.61196 0.2565zm0.21598 3.3161c0.76795 0 1.1519-0.1923 1.1519-0.5771 0-0.171-0.066-0.2992-0.19799-0.3847-0.13199-0.0794-0.35097-0.1435-0.65695-0.1924l-0.98993-0.1466c-0.34197 0.1405-0.51296 0.3543-0.51296 0.6413 0 0.2198 0.10499 0.3847 0.31498 0.4947 0.20998 0.1099 0.50696 0.1648 0.89093 0.1648z" fill="#F9F9F9"/>
<path d="m5.4542 38.813h1.0439l0.027 0.4855c0.13199-0.1527 0.29998-0.287 0.50396-0.4031 0.20999-0.116 0.42897-0.174 0.65695-0.174 0.072 0 0.13799 0.0061 0.19799 0.0183l-0.081 1.1176c-0.11399-0.0305-0.24298-0.0458-0.38697-0.0458-0.18598 0-0.35697 0.0458-0.51296 0.1374-0.15599 0.0855-0.26698 0.1924-0.33298 0.3206v3.1238h-1.1159v-4.5803z" fill="#F9F9F9"/>
<path d="m10.234 43.485c-0.52196 0-0.96893-0.1069-1.3409-0.3206-0.36598-0.2199-0.64196-0.51-0.82794-0.8703-0.17999-0.3664-0.26998-0.7725-0.26998-1.2183 0-0.4275 0.08699-0.8184 0.26098-1.1726s0.42597-0.6351 0.75594-0.8428c0.32998-0.2137 0.72295-0.3206 1.1789-0.3206 0.41998 0 0.77398 0.0886 1.0619 0.2657 0.294 0.1771 0.513 0.4152 0.657 0.7145 0.15 0.2992 0.225 0.6351 0.225 1.0077 0 0.1832-0.024 0.3908-0.072 0.6229h-2.9068c0.06 0.403 0.21599 0.7053 0.46797 0.9069 0.25198 0.1954 0.55496 0.2931 0.90894 0.2931 0.486 0 0.9359-0.1252 1.3499-0.3756l0.054 0.9619c-0.192 0.1038-0.417 0.1893-0.675 0.2565-0.2519 0.061-0.5279 0.0916-0.8279 0.0916zm0.567-2.9039c0-0.2382-0.066-0.4489-0.198-0.6321s-0.336-0.2748-0.61198-0.2748-0.49797 0.0824-0.66595 0.2473c-0.16799 0.1649-0.28198 0.3848-0.34198 0.6596h1.8179z" fill="#F9F9F9"/>
<path d="m14.685 43.485c-0.522 0-0.9689-0.1069-1.3409-0.3206-0.366-0.2199-0.6419-0.51-0.8279-0.8703-0.18-0.3664-0.27-0.7725-0.27-1.2183 0-0.4275 0.087-0.8184 0.261-1.1726s0.4259-0.6351 0.7559-0.8428c0.33-0.2137 0.723-0.3206 1.1789-0.3206 0.42 0 0.774 0.0886 1.0619 0.2657 0.294 0.1771 0.513 0.4152 0.657 0.7145 0.15 0.2992 0.225 0.6351 0.225 1.0077 0 0.1832-0.024 0.3908-0.072 0.6229h-2.9068c0.06 0.403 0.216 0.7053 0.468 0.9069 0.2519 0.1954 0.5549 0.2931 0.9089 0.2931 0.486 0 0.9359-0.1252 1.3499-0.3756l0.054 0.9619c-0.192 0.1038-0.417 0.1893-0.675 0.2565-0.2519 0.061-0.5279 0.0916-0.8279 0.0916zm0.567-2.9039c0-0.2382-0.066-0.4489-0.198-0.6321s-0.336-0.2748-0.612-0.2748-0.4979 0.0824-0.6659 0.2473-0.282 0.3848-0.342 0.6596h1.8179z" fill="#F9F9F9"/>
<path d="m19.056 38.739c0.558 0 0.981 0.1893 1.2689 0.568 0.288 0.3786 0.432 0.8885 0.432 1.5298v2.5558h-1.1159v-2.4642c0-0.4275-0.072-0.742-0.216-0.9436-0.138-0.2076-0.363-0.3114-0.675-0.3114-0.3419 0-0.6239 0.1313-0.8459 0.3939v3.3253h-1.1159v-4.5803h1.0439l0.018 0.3206c0.378-0.2626 0.78-0.3939 1.2059-0.3939z" fill="#F9F9F9"/>
<path d="m22.671 43.485c-0.288 0-0.552-0.0275-0.792-0.0825-0.2339-0.0549-0.4769-0.1404-0.7289-0.2565l0.099-0.971c0.252 0.1527 0.4859 0.2687 0.7019 0.3481 0.222 0.0733 0.45 0.11 0.684 0.11 0.4559 0 0.6839-0.1527 0.6839-0.4581 0-0.1649-0.06-0.2901-0.18-0.3756-0.1199-0.0916-0.3359-0.1984-0.6479-0.3206-0.444-0.1649-0.771-0.3511-0.9809-0.5588-0.21-0.2137-0.315-0.5008-0.315-0.8611 0-0.3969 0.15-0.7175 0.45-0.9618 0.2999-0.2504 0.7049-0.3756 1.2149-0.3756 0.5099 0 0.9749 0.1191 1.3949 0.3573l-0.099 0.971c-0.228-0.1588-0.444-0.281-0.648-0.3665-0.198-0.0855-0.408-0.1282-0.6299-0.1282-0.192 0-0.342 0.0397-0.45 0.1191-0.102 0.0794-0.153 0.1924-0.153 0.3389 0 0.1161 0.03 0.2107 0.09 0.284 0.066 0.0733 0.156 0.1405 0.27 0.2015 0.114 0.055 0.303 0.1344 0.5669 0.2382 0.438 0.171 0.753 0.3603 0.945 0.568 0.192 0.2015 0.288 0.4733 0.288 0.8153 0 0.4336-0.153 0.7694-0.459 1.0076s-0.741 0.3573-1.3049 0.3573z" fill="#F9F9F9"/>
<path d="m27.188 38.739c0.426 0 0.792 0.1069 1.0979 0.3206 0.306 0.2138 0.537 0.5008 0.693 0.8611s0.234 0.7573 0.234 1.1909-0.078 0.8306-0.234 1.1909-0.387 0.6473-0.693 0.8611c-0.3059 0.2137-0.6719 0.3206-1.0979 0.3206-0.27 0-0.501-0.0306-0.6929-0.0916-0.186-0.055-0.366-0.1466-0.54-0.2748v2.5848h-0.3696c-0.4122 0-0.7463-0.3341-0.7463-0.7463v-6.144h0.8999l0.117 0.4214c0.192-0.1649 0.393-0.2871 0.603-0.3664 0.21-0.0855 0.4529-0.1283 0.7289-0.1283zm-0.171 3.8108c0.33 0 0.588-0.1313 0.774-0.3939s0.2789-0.6107 0.2789-1.0443-0.0929-0.7817-0.2789-1.0443-0.444-0.3939-0.774-0.3939c-0.3719 0-0.6509 0.1282-0.8369 0.3847s-0.279 0.6077-0.279 1.0535 0.093 0.797 0.279 1.0535 0.465 0.3847 0.8369 0.3847z" fill="#F9F9F9"/>
<path d="m30.781 43.485c-0.3719 0-0.6839-0.1222-0.9359-0.3664-0.246-0.2504-0.369-0.5863-0.369-1.0077 0-0.397 0.141-0.7145 0.423-0.9527 0.282-0.2443 0.615-0.4153 0.9989-0.513 0.384-0.1038 0.753-0.1618 1.107-0.174-0.012-0.2688-0.081-0.4611-0.207-0.5772-0.12-0.116-0.321-0.174-0.603-0.174-0.198 0-0.393 0.0275-0.5849 0.0824-0.186 0.055-0.402 0.1436-0.648 0.2657l-0.099-0.9252c0.546-0.2687 1.0919-0.4031 1.6379-0.4031 0.5279 0 0.9299 0.1466 1.2059 0.4397 0.282 0.2932 0.423 0.7603 0.423 1.4016v1.2367c0 0.232 9e-3 0.4 0.027 0.5038 0.024 0.0977 0.06 0.1618 0.108 0.1924 0.054 0.0244 0.1409 0.0366 0.2609 0.0366h0.144l-0.099 0.9344h-0.4049c-0.246 0-0.453-0.0458-0.621-0.1374-0.168-0.0977-0.297-0.229-0.387-0.3939-0.144 0.1649-0.3419 0.2962-0.5939 0.3939-0.246 0.0916-0.507 0.1374-0.783 0.1374zm0.468-0.8703c0.114 0 0.243-0.0275 0.387-0.0824 0.144-0.0611 0.27-0.1435 0.3779-0.2474v-1.0443c-0.3599 0.0184-0.6779 0.0978-0.9539 0.2382-0.276 0.1405-0.414 0.3359-0.414 0.5863 0 0.1893 0.048 0.3298 0.144 0.4214 0.096 0.0855 0.249 0.1282 0.459 0.1282z" fill="#F9F9F9"/>
<path d="m34.021 38.813h1.0439l0.027 0.4855c0.132-0.1527 0.3-0.287 0.504-0.4031 0.21-0.116 0.429-0.174 0.657-0.174 0.072 0 0.1379 0.0061 0.1979 0.0183l-0.081 1.1176c-0.1139-0.0305-0.2429-0.0458-0.3869-0.0458-0.186 0-0.357 0.0458-0.513 0.1374-0.156 0.0855-0.267 0.1924-0.333 0.3206v3.1238h-1.1159v-4.5803z" fill="#F9F9F9"/>
<path d="m36.802 36.523h1.1159v4.168l1.3949-1.8779h1.2599l-1.6378 2.1985 1.6738 2.3818h-1.2599l-1.4309-2.0337v2.0337h-1.1159v-6.8704z" fill="#F9F9F9"/>
</svg>
